<?xml version="1.0" encoding="UTF-8"?><svg id="Layer_2" xmlns="http://www.w3.org/2000/svg" xmlns:xlink="http://www.w3.org/1999/xlink" viewBox="0 0 250.5 932.92"><defs><style>.cls-1{fill:url(#linear-gradient-2);}.cls-2,.cls-3{fill:#fff;}.cls-4{fill:#323147;}.cls-5{fill:url(#New_Pattern);}.cls-6{fill:#592400;}.cls-7{fill:url(#New_Pattern-2);}.cls-8{fill:#090730;}.cls-9{fill:#fc9d9d;}.cls-10{fill:#b6adf4;}.cls-11{fill:#b26e40;}.cls-12{fill:#d3d8ff;}.cls-13{fill:#21202d;}.cls-3{opacity:.22;}.cls-14,.cls-15{fill:none;}.cls-16{fill:#c68252;}.cls-17{fill:url(#linear-gradient-3);}.cls-18{fill:url(#linear-gradient);}.cls-19{fill:#b73030;}.cls-20{fill:#13134f;}.cls-15{stroke:#110a05;stroke-miterlimit:10;stroke-width:2px;}</style><linearGradient id="linear-gradient" x1="105.88" y1="164.04" x2="127.84" y2="261.57" gradientUnits="userSpaceOnUse"><stop offset=".11" stop-color="#78471c"/><stop offset="1" stop-color="#c68252"/></linearGradient><linearGradient id="linear-gradient-2" x1="-249.72" y1="-90.92" x2="-243.05" y2="-61.27" gradientTransform="translate(555.23 315.29) rotate(14.13) scale(1.57 1.22)" gradientUnits="userSpaceOnUse"><stop offset=".08" stop-color="#c68252"/><stop offset="1" stop-color="#78471c"/></linearGradient><linearGradient id="linear-gradient-3" x1="-1691.64" y1="370.72" x2="-1684.96" y2="400.37" gradientTransform="translate(-2641.35 315.29) rotate(165.87) scale(1.57 -1.22)" xlink:href="#linear-gradient-2"/><pattern id="New_Pattern" x="0" y="0" width="430.98" height="398.1" patternTransform="translate(-1217.7 -85.66)" patternUnits="userSpaceOnUse" viewBox="0 0 430.98 398.1"><g><rect class="cls-14" y="0" width="430.98" height="398.1"/><g><rect class="cls-10" y="357.79" width="430.98" height="40.31"/><rect class="cls-12" y="318.48" width="430.98" height="40.31"/></g><g><rect class="cls-10" y="278.17" width="430.98" height="40.31"/><rect class="cls-12" y="238.86" width="430.98" height="40.31"/></g><g><rect class="cls-10" y="198.55" width="430.98" height="40.31"/><rect class="cls-12" y="159.24" width="430.98" height="40.31"/></g><g><rect class="cls-10" y="118.93" width="430.98" height="40.31"/><rect class="cls-12" y="79.62" width="430.98" height="40.31"/></g><g><rect class="cls-10" y="39.31" width="430.98" height="40.31"/><rect class="cls-12" y="0" width="430.98" height="40.31"/></g></g></pattern><pattern id="New_Pattern-2" patternTransform="translate(-1560.74 -585.63) rotate(6.04) scale(1 .88) skewX(.33)" xlink:href="#New_Pattern"/></defs><g id="Layer_13"><path class="cls-16" d="m19.4,311.01L0,487.2s19.47,49.63,44.94,46.91c0,0-7.23-56.4,5.07-68.46,0,0,6.63,15.59,18.43,13.44,11.8-2.15-18.54-33.51-18.54-33.51l-9.39-7.94,23.11-130.09s-28.79,13.31-44.23,3.47Z"/><polygon class="cls-13" points="46.92 438.56 47.1 854.23 124.13 848.86 129.64 531.02 135.93 531.22 137.33 848.84 213.88 845.86 210.32 439.32 46.92 438.56"/><circle class="cls-8" cx="66.07" cy="168.27" r="29.87"/><path class="cls-8" d="m0,166.67c0-16.5,13.37-29.87,29.87-29.87s29.87,13.37,29.87,29.87-13.37,29.87-29.87,29.87S0,183.17,0,166.67"/><circle class="cls-8" cx="43.3" cy="201.85" r="30.79"/><ellipse class="cls-8" cx="81.63" cy="214.32" rx="41.02" ry="36.09"/><ellipse class="cls-8" cx="170.83" cy="212.97" rx="33.44" ry="31.16"/><ellipse class="cls-8" cx="211.63" cy="198.38" rx="38.87" ry="37.69"/><circle class="cls-8" cx="212.86" cy="155.93" r="26.56"/><g><path class="cls-16" d="m44.06,146.32s12.01,36.53,12.48,37.17c.32.44,43.23,23.42,60.43,32.63,4.35,2.33,9.61,2.2,13.85-.33l51.7-30.87c1.97-1.17,3.4-3.06,4.01-5.27l8.35-30.41s10.28,10.54,18.19.2,7.49-18.01,7.49-18.01c0,0,1.47-25-11.87-18.83,0,0,20.18-103.55-77.8-103.55S28.93,95.61,29.19,106.76c0,0-15.93-4.25-12.21,23.1,0,0,4.51,31.33,22.3,23.37l4.78-6.9Z"/><path class="cls-18" d="m93.03,203.3s14.09,33.97,9.31,38.75-25.89,12.74-25.89,12.74c0,0,25.49,32.26,53.37,27.88,27.88-4.38,46.6-25.89,46.6-25.89l-13.6-8.46c-2.65-1.65-4.14-4.65-3.85-7.76l4.09-44.02-32.25,19.25s-7.36,4.48-14.89-.23l-22.9-12.27Z"/><path class="cls-1" d="m203.71,121.57c5.15,1.3,8.04,7.48,6.45,13.8-1.59,6.32-7.06,10.39-12.22,9.1"/><path class="cls-17" d="m36.76,118.78c-5.15,1.3-8.04,7.48-6.45,13.8,1.59,6.32,7.06,10.39,12.22,9.1"/></g><g><path class="cls-8" d="m125.84,38.06c.95-2.05,6.14-29.12-5.97-37.07-12.74-8.36-86.4,39.28-86.4,39.28,0,0-16.33,53.77-5.97,67.31l1.69,2.69s6.07-2.09,10.26,0,17.92-19.81,13.94-30.97c0,0,27.48-2.19,59.94-39.63,0,0,11.78-17.85,12.52-1.61Z"/><path class="cls-8" d="m128.6,38.39c-.52-.47-3.15-30.37,10.88-36.32,4.38-1.86,14.07,6.5,26.81,7.13,13.59.68,26.34,7.36,33.86,24.77,2.74,6.34,7.47,10.16,11.71,12.44,5.92,3.17,10.08,8.85,11.13,15.49,2.74,17.45,6.07,48.1-2.79,56.16l-2.86-.99c-2.51-.87-5.27-.61-7.58.72-2.71,1.56-6.41,3.53-8.96,4.28-4.49,1.31-14.13-22.64-8.23-32.88,0,0-26.66-7.03-51.97-49.56,0,0-8.44-17.56-11.99-1.24Z"/><path class="cls-8" d="m128.3,18.34s2.66-8.46,1.13-11.25-9.83-6.27-9.83-6.27l8.16,21.4.54-3.88Z"/><path class="cls-8" d="m128.97,16.66s.08-8.11,2.07-10.59c2.32-2.9,9.53-4.25,9.53-4.25l-11.9,19.8.3-4.96Z"/></g><path class="cls-20" d="m188.32,63.16c-1.74,8.54-3.49,17.07-5.23,25.61-4.6-2.61-11.86-6.05-21.37-7.97-9.33-1.89-17.23-1.57-22.43-.99,1.74-8.53,3.49-17.07,5.23-25.6,1.99-.06,4.16-.06,6.48.03l-.68,14.07h2.94l2.73-13.75c2.58.22,5.3.56,8.15,1.06,10.09,1.76,18.27,4.82,24.18,7.54Z"/><path class="cls-20" d="m108.71,79c-7.24.26-17.11,1.24-28.43,4.27-9.53,2.56-17.34,5.83-23.19,8.72-2.2-8.71-4.39-17.43-6.58-26.14,5.61-3.12,14.26-7.22,25.5-9.99,5.16-1.27,9.96-2.03,14.25-2.47l3.13,14.92h2.55l-.9-15.3c2.65-.15,5.03-.18,7.09-.15,2.2,8.71,4.39,17.43,6.58,26.14Z"/><g><ellipse class="cls-2" cx="81.63" cy="117.26" rx="21.3" ry="23.02"/><ellipse class="cls-6" cx="78.46" cy="113.42" rx="16.24" ry="17.55"/><circle class="cls-2" cx="68.65" cy="105.15" r="5.44"/></g><g><ellipse class="cls-2" cx="160.88" cy="118.78" rx="21.3" ry="23.02"/><ellipse class="cls-6" cx="159.87" cy="115.39" rx="16.24" ry="17.55"/><circle class="cls-2" cx="150.64" cy="106.67" r="5.44"/></g><circle class="cls-15" cx="160.88" cy="118.78" r="33.25"/><circle class="cls-15" cx="79.61" cy="118.78" r="33.25"/><circle class="cls-3" cx="160.88" cy="118.78" r="31.71"/><circle class="cls-3" cx="79.61" cy="118.78" r="31.71"/><path class="cls-15" d="m112.86,118.78s7.8-7.63,14.77,0"/><path class="cls-11" d="m121.26,152.42c-6.86,0-12.54-2.87-13.69-6.65-.14.45-.22.92-.22,1.39,0,4.44,6.23,8.04,13.91,8.04s13.91-3.6,13.91-8.04c0-.48-.09-.94-.22-1.39-1.14,3.78-6.83,6.65-13.69,6.65Z"/><path class="cls-2" d="m102.93,176.44s19.39,9.19,38.28-1.19c0,0,3.57.86,2.04,2.47s-22.81,10.63-41.19,1.44c0,0-3.88-2.89.87-2.72Z"/><ellipse class="cls-9" cx="74.09" cy="162.95" rx="14.46" ry="8.12"/><ellipse class="cls-9" cx="167.72" cy="162.95" rx="14.46" ry="8.12"/><rect class="cls-4" x="39.65" y="823.85" width="88.34" height="41.36" rx="8" ry="8"/><rect class="cls-4" x="131.3" y="823.85" width="91.57" height="41.36" rx="8" ry="8"/><rect class="cls-16" x="63.26" y="865.21" width="45.43" height="31.47"/><rect class="cls-16" x="157.4" y="865.21" width="47.95" height="31.47"/><path class="cls-19" d="m129.34,930.6c1.76-10.38,2.27-31.07-20.65-33.92-30.78-3.83-45.43,0-45.43,0,0,0-30.07-4.2-22.02,34.17"/><path class="cls-19" d="m229.44,932.77c1.96-9.31,4.42-33.02-20.23-36.09-30.78-3.83-45.43,0-45.43,0,0,0-31.14-4.34-21.56,36.24"/><path class="cls-5" d="m76.96,249.23s47.17,59.23,99.97,1.99l35.21,11.47-1.82,176.63-163.4-.76,5.58-110.54-1.99,40s-26.22-10.79-50.51-2.36l16.42-97.43,60.54-19Z"/><path class="cls-16" d="m180.54,327.22l-37.36-46.7s3.08-30.21-.47-48.87c-3.55-18.66-9.68-5.07-9.68-5.07l-11.27,26.92-4.48-5.35-31.03-53.63c-3.31-5.72-11.7-4.2-12.93,2.34l-7.4,39.23c-3.35,17.77,3.67,35.92,17.95,46.42l80.05,103.33c6.4,8.26,15.34,14.01,25.35,16.28l11.34,2.58c14.42,3.28,28.24-7.58,29.04-22.81l6.11-117.42-51.98-11.93-3.21,74.69Z"/><path class="cls-7" d="m238.4,340.87c-5.41-3.19-11.4-21.28-31.09-23.04-16.57-1.49-23.62,2.12-29.68,4.15,2.52-25.38-3.23-45.38-.71-70.76l50.41,7.61c14.15,4.26,14.55,14.87,14.13,24.25l-3.06,57.8Z"/></g></svg>