<?xml version="1.0" encoding="UTF-8"?><svg id="Layer_2" xmlns="http://www.w3.org/2000/svg" xmlns:xlink="http://www.w3.org/1999/xlink" viewBox="0 0 1379.9 885.81"><defs><style>.cls-1,.cls-2{fill:#fff;}.cls-3{fill:#323147;}.cls-4{fill:url(#New_Pattern);}.cls-5{fill:#592400;}.cls-6{fill:url(#New_Pattern-2);}.cls-7{fill:#090730;}.cls-8{fill:#0c0501;}.cls-9{fill:#b6adf4;}.cls-10{stroke-width:3px;}.cls-10,.cls-11{stroke:#000;stroke-miterlimit:10;}.cls-10,.cls-11,.cls-12{fill:none;}.cls-13{opacity:.23;}.cls-14{fill:#d3d8ff;}.cls-11{stroke-width:2px;}.cls-2{opacity:.29;}.cls-15{fill:#21202d;}.cls-16{fill:#c68252;}.cls-17{fill:#434a60;}.cls-18{fill:url(#linear-gradient);}.cls-19{fill:#68708e;}.cls-20{fill:#b73030;}.cls-21{fill:#13134f;}</style><pattern id="New_Pattern" x="0" y="0" width="430.98" height="398.1" patternTransform="translate(-1166.41 -149.57) rotate(5.58) scale(.9 1)" patternUnits="userSpaceOnUse" viewBox="0 0 430.98 398.1"><g><rect class="cls-12" y="0" width="430.98" height="398.1"/><g><rect class="cls-9" y="357.79" width="430.98" height="40.31"/><rect class="cls-14" y="318.48" width="430.98" height="40.31"/></g><g><rect class="cls-9" y="278.17" width="430.98" height="40.31"/><rect class="cls-14" y="238.86" width="430.98" height="40.31"/></g><g><rect class="cls-9" y="198.55" width="430.98" height="40.31"/><rect class="cls-14" y="159.24" width="430.98" height="40.31"/></g><g><rect class="cls-9" y="118.93" width="430.98" height="40.31"/><rect class="cls-14" y="79.62" width="430.98" height="40.31"/></g><g><rect class="cls-9" y="39.31" width="430.98" height="40.31"/><rect class="cls-14" y="0" width="430.98" height="40.31"/></g></g></pattern><linearGradient id="linear-gradient" x1="1075.57" y1="204.19" x2="1225.59" y2="173.18" gradientTransform="translate(29.31 -108.07) rotate(5.58)" gradientUnits="userSpaceOnUse"><stop offset="0" stop-color="#090730"/><stop offset=".89" stop-color="#010008"/></linearGradient><pattern id="New_Pattern-2" patternTransform="translate(3240.33 -6455.34) rotate(-37.49)" xlink:href="#New_Pattern"/></defs><g id="Layer_1-2"><path class="cls-16" d="m1125.45,389.66l45.81,50.15c.51.56,1.14.99,1.84,1.27l36.97,14.72c1.17.47,2.12,1.35,2.66,2.49l8.44,17.65c2,4.18-2.26,8.59-6.51,6.74l-46.73-20.34c-.24-.1-.47-.23-.69-.37l-101.79-64.85c-2.36-1.5-3.03-4.65-1.48-6.98l76.58-115.35c1.65-2.48,5.08-2.98,7.37-1.07l32.72,27.3c2.04,1.7,2.39,4.7.8,6.83l-56.33,75.44c-1.44,1.92-1.3,4.59.32,6.36Z"/><rect class="cls-16" x="922.23" y="692.78" width="33.76" height="33.76" transform="translate(1040.16 -463.09) rotate(57.85)"/><path class="cls-20" d="m950.13,786.75l-49.83-62.59c-4.16-5.22-3.29-12.82,1.93-16.98l8.89-7.08c5.75-4.58,14.22-3.01,17.95,3.33l40.94,69.66c3.05,5.19,1.82,11.83-2.89,15.58h0c-5.22,4.16-12.82,3.29-16.98-1.93Z"/><rect class="cls-16" x="1166.47" y="832.23" width="33.76" height="33.76" transform="translate(271.85 -286.88) rotate(15.6)"/><polygon class="cls-15" points="1231.58 479.25 1259.15 680.98 1219.32 839.13 1154.98 839.13 1187.66 663.08 1174.13 597.46 1159.07 631.93 963.83 728.38 939.11 675.35 1099.13 586.48 1113.62 479.25 1231.58 479.25"/><path class="cls-20" d="m1247.07,885.81h-80c-6.67,0-12.08-5.41-12.08-12.08v-11.36c0-7.35,6.51-13,13.78-11.96l80,11.36c5.96.85,10.39,5.95,10.39,11.96h0c0,6.67-5.41,12.08-12.08,12.08Z"/><path class="cls-16" d="m1194.32,271.31c2.35-.75,3.29-3.58,1.88-5.6-5.81-8.34-18.52-29.09-12.8-43.77,6.9-17.73,25.57-9.32,27.64-8.32.14.07.27.12.41.17l18.76,6.4c1.94.66,4.05-.38,4.69-2.33,1.88-5.73,5.43-16.61,5.87-18.56.51-2.28,2.19-24.63,2.67-31.22.08-1.15.7-2.19,1.67-2.82l16.36-10.6s3.22-1.4,1.8-4.44c-1.41-3.04-13.17-19.24-12.81-26.39.31-6.19,6.7-27.4,8.41-33,.27-.89.2-1.83-.2-2.67l-9.04-18.8s-41.73-87.54-125.13-14.62c-80.38,70.27,17.35,144.92,24.55,150.24.3.22.56.48.78.78,2.02,2.78,11.25,17.11-3.3,28.98-1.39,1.14-1.77,3.1-.88,4.67,5.45,9.6,24.72,39.6,48.68,31.91Z"/><path class="cls-4" d="m1109.11,484.99s-5.79,10.38,31.8,13.44c0,0,79.13,13.32,98.2,3.21,0,0,3.62-2.7.56-6.9,0,0,2.91-14.08.57-21.49,0,0,5.95-123.58-16.35-158.94-22.29-35.36-27.95-46.51-27.95-46.51,0,0-21.73,4.99-46.57-35.75l-2.63,1.99c-2.66,2.49-5.72,6.25-6.32,9.41-1.01,5.35-2.85,12.05-6.98,24.51,0,0-38.31,105.86-24.34,217.02Z"/><g><path class="cls-1" d="m1241.83,119.19c-1.07,10.91-5.5,19.6-10.3,20.72-.49.11-.98.15-1.48.1-5.33-.52-8.69-10.69-7.52-22.71,1.17-12.02,6.44-21.34,11.77-20.82,1.6.16,3.02,1.18,4.2,2.86,2.75,3.93,4.15,11.44,3.33,19.85Z"/><path class="cls-5" d="m1241.83,119.19c-1.07,10.91-5.17,19.63-9.53,20.8-2.45-3.89-3.66-11.38-2.83-19.8,1.07-10.92,5.17-19.63,9.53-20.8,2.45,3.9,3.66,11.39,2.83,19.8Z"/></g><ellipse class="cls-11" cx="1258.53" cy="118.2" rx="2.68" ry="23.98"/><line class="cls-10" x1="1153.47" y1="118.2" x2="1255.85" y2="120.56"/><path class="cls-21" d="m1244.06,87.68c-5.32.6-11.56,1.68-18.4,3.65-7.82,2.25-14.41,5.08-19.67,7.76-2.51-8.37-5.02-16.75-7.53-25.12,4.86-2.46,11.03-4.99,18.4-6.71,3.34-.78,6.5-1.29,9.41-1.62,1.39,3.68,2.78,7.35,4.17,11.03l1.52.15.06-12.89c1.5-.45,3.01-.9,4.51-1.36l7.53,25.12Z"/><rect class="cls-3" x="920.05" y="672.18" width="91.57" height="41.36" rx="8" ry="8" transform="translate(1038.44 -493.57) rotate(57.85)"/><g><path class="cls-7" d="m1230.29,54.57s-.89,11.71,23.95,9.52c0,0,20.71-7.21,7.96-28.98,0,0-4.08-5.53-15.93-10.28,0,0-24.51-40.62-65.07-16.62,0,0-72.59-36.85-79.37,45.6,0,0-19.72-.39-15.59,25.67,0,0-43.03,12.47-4.68,55.72,0,0,16.86,16.53,27.57,14.5,0,0,1.05,36.53,60.12,38.46,0,0,1.9,6.86,10.88,4.14,0,0-16.66-8.04-3.34-28.8l7.22-10.84s-9.63,9.32-14.01-16.76c-4.38-26.08,10.79-23.83,10.79-23.83,0,0,7.65,3.06,5.39,13.1,0,0,10.08-26.98-7.18-42,0,0,42.88-2.99,51.28-28.59Z"/><path class="cls-18" d="m1045.89,200.77s-31.68-12.23-4.69-60.12c0,0,30.81-33,66.17,1.63,0,0,20.21-20.6,38.9-1.57,18.69,19.02-2.81,28.78-2.81,28.78,0,0,28.27-6.95,34.95,8.75,0,0,16.55,42.68-23.8,40.24,0,0,12.94,10.83,8.31,22.2-4.63,11.37-31.17,6.63-31.17,6.63,0,0,6.43,24.28-17.46,22.48-23.89-1.8-18.01-25.95-18.01-25.95,0,0-27.67,12.88-40.33-1.79-12.65-14.67-10.05-41.29-10.05-41.29Z"/></g><g><path class="cls-19" d="m269.87,805.72h0c0,13.66,11.08,24.74,24.74,24.74h28.95c13.66,0,24.74-11.08,24.74-24.74h0c0-13.66-11.08-24.74-24.74-24.74h-28.95c-13.66,0-24.74,11.08-24.74,24.74Zm50.63,15.82h-22.84c-8.74,0-15.82-7.08-15.82-15.82h0c0-8.74,7.08-15.82,15.82-15.82h22.84c8.74,0,15.82,7.08,15.82,15.82h0c0,8.74-7.08,15.82-15.82,15.82Z"/><path class="cls-19" d="m379.61,805.72h0c0,13.66,11.08,24.74,24.74,24.74h28.95c13.66,0,24.74-11.08,24.74-24.74h0c0-13.66-11.08-24.74-24.74-24.74h-28.95c-13.66,0-24.74,11.08-24.74,24.74Zm50.63,15.82h-22.84c-8.74,0-15.82-7.08-15.82-15.82h0c0-8.74,7.08-15.82,15.82-15.82h22.84c8.74,0,15.82,7.08,15.82,15.82h0c0,8.74-7.08,15.82-15.82,15.82Z"/><path class="cls-19" d="m488.38,804.02h0c0,13.66,11.08,24.74,24.74,24.74h28.95c13.66,0,24.74-11.08,24.74-24.74h0c0-13.66-11.08-24.74-24.74-24.74h-28.95c-13.66,0-24.74,11.08-24.74,24.74Zm50.63,15.82h-22.84c-8.74,0-15.82-7.08-15.82-15.82h0c0-8.74,7.08-15.82,15.82-15.82h22.84c8.74,0,15.82,7.08,15.82,15.82h0c0,8.74-7.08,15.82-15.82,15.82Z"/><rect class="cls-17" x="331.85" y="799.14" width="67.9" height="13.16" rx="6.58" ry="6.58"/><rect class="cls-17" x="441.38" y="799.14" width="67.9" height="13.16" rx="6.58" ry="6.58"/><path class="cls-19" d="m594.93,802.31h0c0,13.66,11.08,24.74,24.74,24.74h28.95c13.66,0,24.74-11.08,24.74-24.74h0c0-13.66-11.08-24.74-24.74-24.74h-28.95c-13.66,0-24.74,11.08-24.74,24.74Zm50.63,15.82h-22.84c-8.74,0-15.82-7.08-15.82-15.82h0c0-8.74,7.08-15.82,15.82-15.82h22.84c8.74,0,15.82,7.08,15.82,15.82h0c0,8.74-7.08,15.82-15.82,15.82Z"/><rect class="cls-17" x="547.93" y="797.44" width="67.9" height="13.16" rx="6.58" ry="6.58"/><path class="cls-19" d="m695.45,807.61h0c5.06,9.99,19.04,13.09,31.23,6.92l25.83-13.08c12.19-6.17,17.97-19.28,12.91-29.27h0c-5.06-9.99-19.04-13.09-31.23-6.92l-25.83,13.08c-12.19,6.17-17.97,19.28-12.91,29.27Zm51.03-11.31l-20.37,10.32c-7.79,3.95-16.74,1.97-19.97-4.42h0c-3.24-6.39.46-14.77,8.25-18.72l20.37-10.32c7.79-3.95,16.74-1.97,19.97,4.42h0c3.24,6.39-.46,14.77-8.25,18.72Z"/><rect class="cls-17" x="647" y="799.14" width="67.9" height="13.16" rx="6.58" ry="6.58" transform="translate(-155.24 162.56) rotate(-12.23)"/><path class="cls-19" d="m788.83,763.05h0c6.5,12.02,21.52,16.49,33.53,9.98l25.46-13.78c12.02-6.5,16.49-21.52,9.98-33.53h0c-6.5-12.02-21.52-16.49-33.53-9.98l-25.46,13.78c-12.02,6.5-16.49,21.52-9.98,33.53Zm52.06-10.19l-20.08,10.87c-7.68,4.16-17.28,1.3-21.44-6.38h0c-4.16-7.68-1.3-17.28,6.38-21.44l20.08-10.87c7.68-4.16,17.28-1.3,21.44,6.38h0c4.16,7.68,1.3,17.28-6.38,21.44Z"/><rect class="cls-17" x="744.21" y="764.18" width="67.9" height="13.16" rx="6.58" ry="6.58" transform="translate(-273.05 463.26) rotate(-28.42)"/><path class="cls-19" d="m860.88,696.21h0c1.17,13.61,13.15,23.7,26.76,22.54l28.84-2.47c13.61-1.17,23.7-13.15,22.54-26.76h0c-1.17-13.61-13.15-23.7-26.76-22.54l-28.84,2.47c-13.61,1.17-23.7,13.15-22.54,26.76Zm51.8,11.44l-22.75,1.95c-8.71.75-16.37-5.71-17.11-14.41h0c-.75-8.71,5.71-16.37,14.41-17.11l22.75-1.95c8.71-.75,16.37,5.71,17.11,14.41h0c.75,8.71-5.71,16.37-14.41,17.11Z"/><rect class="cls-17" x="836.25" y="716.55" width="67.9" height="13.16" rx="6.58" ry="6.58" transform="translate(-251.38 574.01) rotate(-32.15)"/><rect class="cls-17" x="920.56" y="683.03" width="62.19" height="13.16" rx="6.58" ry="6.58" transform="translate(22.92 -30.58) rotate(1.86)"/><rect class="cls-19" x="939.72" y="659.28" width="96.6" height="37.36" rx="6.58" ry="6.58" transform="translate(768.77 -500.06) rotate(45)"/></g><path class="cls-16" d="m1271.42,359.81l57.6-36.01c.64-.4,1.18-.94,1.58-1.58l21.15-33.71c.67-1.07,1.71-1.84,2.93-2.17l18.88-5.12c4.47-1.21,8.04,3.78,5.46,7.62l-28.44,42.29c-.15.22-.31.42-.49.61l-82.16,88.41c-1.91,2.05-5.12,2.14-7.14.19l-99.63-96.14c-2.14-2.07-2.01-5.54.27-7.44l32.76-27.26c2.04-1.7,5.06-1.5,6.86.44l64.04,69.02c1.63,1.76,4.28,2.11,6.32.84Z"/><path class="cls-6" d="m1150.99,282.07s13.11-20.67,57.28,13.02l35.79,22.75s-24.77,46.99-61.35,50.91l-28.7-47.49s-23.94-33.48-3.03-39.19Z"/><ellipse class="cls-8" cx="1231.97" cy="194.09" rx="2.75" ry="4.09"/><g><circle class="cls-19" cx="197.62" cy="643.29" r="197.62"/><path class="cls-13" d="m395.23,643.28c0,109.14-88.48,197.62-197.62,197.62-54.88,0-104.53-22.37-140.34-58.49,16.49,7.36,34.27,12.56,53.04,15.2,108.08,15.21,208.03-60.06,223.24-168.14,8.95-63.56-13.4-124.31-55.33-166.67,68.96,30.84,117.01,100.05,117.01,180.48Z"/></g><path class="cls-2" d="m98.92,513.34c8.59,6.25,8.16,19.21-.85,24.84-5.69,3.55-11.58,8.53-16.64,15.49-5.05,6.95-7.97,14.09-9.59,20.59-2.57,10.31-14.77,14.71-23.37,8.47-.1-.07-.19-.14-.29-.21-4.29-3.12-6.63-8.26-6.12-13.54.91-9.29,4.1-23.44,14.61-36.75,8.91-11.28,19.53-17.46,27.24-20.79,4.84-2.08,10.42-1.42,14.69,1.68l.31.23Z"/><rect class="cls-3" x="1149.07" y="806.37" width="88.34" height="41.36" rx="8" ry="8"/></g></svg>