<?xml version="1.0" encoding="UTF-8"?><svg id="Layer_2" xmlns="http://www.w3.org/2000/svg" xmlns:xlink="http://www.w3.org/1999/xlink" viewBox="0 0 1611.26 707.57"><defs><style>.cls-1{fill:url(#linear-gradient-2);}.cls-2{fill:#f0f0f0;}.cls-3{fill:#fffffd;}.cls-4{opacity:.33;}.cls-5{fill:#494648;}.cls-6{fill:#869ead;}.cls-7{fill:#c2c2c2;}.cls-8{fill:url(#linear-gradient);}.cls-9{fill:#333132;}.cls-10{fill:#232122;}.cls-11{fill:#29ffff;}.cls-12{fill:#b6cad8;}</style><linearGradient id="linear-gradient" x1="1112.62" y1="1290.51" x2="1319.39" y2="1290.51" gradientTransform="translate(185.18 -553.48) rotate(-5.21) scale(1 .91)" gradientUnits="userSpaceOnUse"><stop offset="0" stop-color="#afccf6"/><stop offset=".94" stop-color="#b6cad8"/></linearGradient><linearGradient id="linear-gradient-2" x1="1404.5" y1="259.98" x2="1611.26" y2="259.98" gradientTransform="matrix(1, 0, 0, 1, 0, 0)" xlink:href="#linear-gradient"/></defs><g id="Layer_18"><polygon class="cls-9" points="17.09 524.86 1263.28 536.19 1448.95 667.7 157.46 667.7 17.09 524.86"/><polygon class="cls-5" points="1311.12 667.9 1453.74 667.9 1268.07 536.39 1162.56 535.43 1311.12 667.9"/><path class="cls-9" d="m1482.51,393.22s-62.22,108.08-174,93.04l1.49,27.9s107.25,52.9,191.82-101.24l-19.31-19.7Z"/><path class="cls-9" d="m1323.59,502.19c0,28.35-22.06,52.62-50.07,48.31-7.75-1.19-11.64-8.63-14.12-12.97-1.08-1.88-1.43-4.08-.99-6.2l.05-.24c1.5-7.26,10.67-9.54,15.47-3.89,1.35,1.59,2.54,2.72,3.36,2.92,10.57,2.52,25.92-11.15,25.92-27.93s-15.6-28.43-25.16-21.13c-1.1.84-3.91,3.09-7.04,5.51-5.17,3.99-12.73,1.22-14.09-5.17l-.76-3.56c-.52-2.45.01-5.01,1.49-7.04,3.82-5.24,11.03-13.68,13.1-14.9,18.75-11.07,52.84,17.95,52.84,46.29Z"/><g><path class="cls-8" d="m1513.62,623.72h0c-56.86,5.19-106.6-30.62-111.11-79.97l-14.35-157.27c26.25,3.41,61.35,5.71,102.45,2.09,42.53-3.74,77.73-12.6,103.45-20.87,4.78,52.42,9.56,104.85,14.35,157.27,4.5,49.35-37.94,93.57-94.8,98.75Z"/><ellipse class="cls-6" cx="1491.12" cy="377.09" rx="104.17" ry="14.24" transform="translate(-28.09 137.02) rotate(-5.21)"/></g><path class="cls-1" d="m1611.26,290.27c0,35.64-25.45,66.6-61.41,74.56-14.75,3.27-31.55,5.21-50.02,4.46-38.74-1.58-68.51-14.33-86.04-23.93-5.74-3.14-9.3-9.01-9.3-15.39v-138.16c2.7-13.59,11.01-19.63,24.85-26.17,19.02-8.99,34.51-13.8,70.49-15,16.47-.55,31.7.65,45.44,2.83,38.13,6.05,65.98,38.11,65.98,75.44v61.35Z"/><path class="cls-9" d="m1544.46,256.96v38.77c0,16.34-10.08,31.09-25.47,36.94-14.78,5.62-33.4,10.69-55.19,12.37-12.57.97-36.26-3.99-46.68-5.02-16.49-4.53-12.66-27.67-12.66-49.88v-55.79c0-7.19-.8-15.87.04-22.4,14.17-4.76,37-7.35,60.82-5.8,23.5,1.53,42.81,8.33,57.01,15.34,13.57,6.69,22.13,20.44,22.13,35.48Z"/><ellipse class="cls-11" cx="1444.26" cy="278.27" rx="17.55" ry="38.98"/><ellipse class="cls-3" cx="1459.26" cy="259.75" rx="12.17" ry="14.15"/><path class="cls-12" d="m1564.5,630.51c1.16,5.85-1.36,11.81-6.36,15.07-6.25,4.09-15.22,8.54-26.67,10.43-9.53,1.57-17.91.9-24.35-.34-5.8-1.11-10.31-5.67-11.46-11.46h0c-1.8-9.08,5.19-17.5,14.45-17.42,4.04.04,8.42-.21,13.08-.88,8.24-1.19,15.4-3.46,21.38-6.01,8.48-3.62,18.14,1.56,19.94,10.6h0Z"/><path class="cls-9" d="m1485.41,457.42c5.5,37.72,2.76,124.7-126.75,163.15l17.54,42.03s155.53-65.69,140.43-209.2c-.84-7.97-7.63-13.99-15.64-13.99h0c-9.6,0-16.96,8.52-15.57,18.02Z"/><path class="cls-9" d="m1389.95,633.92c-7.75-22.13-35.05-33.37-64.61-28.36-5.29.9-8.47,6.39-6.7,11.45h0c1.36,3.88,5.25,6.29,9.32,5.75,18.51-2.45,35.27,4.86,40.15,18.8,4.88,13.93-3.65,30.12-19.64,39.75-3.52,2.12-5.05,6.43-3.69,10.31h0c1.77,5.06,7.69,7.37,12.38,4.77,26.22-14.54,40.54-40.35,32.78-62.48Z"/><polygon class="cls-11" points="1091.49 286.71 1101.17 400.43 1138.67 400.43 1143.51 439.41 1185.86 439.41 1185.86 389.54 1200.37 389.54 1200.37 355.67 1224.57 356.88 1224.57 383.49 1269.91 379.86 1260.86 14.52 1231.83 14.52 1231.83 29.57 1202.79 29.97 1201.58 0 1132.63 0 1132.63 48.39 1110.85 47.18 1110.85 89.52 1078.19 91.94 1091.49 286.71"/><polygon class="cls-2" points="1107.77 281.87 1115.54 373.17 1145.65 373.17 1149.53 404.47 1183.53 404.47 1183.53 364.43 1195.18 364.43 1195.18 337.23 1214.61 338.21 1214.61 359.57 1251.02 356.66 1243.75 63.33 1220.44 63.33 1220.44 75.41 1197.13 75.74 1196.16 51.67 1140.79 51.67 1140.79 90.52 1123.31 89.55 1123.31 123.55 1097.08 125.49 1107.77 281.87"/><polygon class="cls-11" points="1415.99 259.98 1264.68 168.79 1264.68 278.27 1415.99 273.91 1415.99 259.98"/><polygon class="cls-5" points="1280.38 665.63 1165.08 667.95 1044.74 532.4 1136.89 533.24 1280.38 665.63"/><polygon class="cls-5" points="1138.15 666.6 1020.09 666.75 922.39 532.36 1020.46 533.25 1138.15 666.6"/><polygon class="cls-5" points="844.15 666.92 737.86 667.05 685.56 530.27 775.76 531.09 844.15 666.92"/><polygon class="cls-5" points="611.95 667.26 721.3 667.05 669.14 530.32 560.89 529.61 611.95 667.26"/><polygon class="cls-5" points="599.01 668.72 506.88 667.54 449.87 528.78 546.15 529.66 599.01 668.72"/><polygon class="cls-5" points="493.59 667.1 375.53 667.26 279.48 527.24 439.03 528.57 493.59 667.1"/><polygon class="cls-5" points="365.39 667.7 233.1 667.15 162.1 527 264.83 527 365.39 667.7"/><path class="cls-5" d="m219.85,667.26l-124.44.44c-1.72,0-3.3-.94-4.1-2.46l-70.6-133.53c-1.64-3.09.63-6.81,4.13-6.78l123.92,1.13,71.09,141.2Z"/><rect class="cls-10" x="37.94" y="515.97" width="29.13" height="196.06" rx="4.92" ry="4.92" transform="translate(356.19 1150.21) rotate(155.36)"/><rect class="cls-9" x="69.25" y="666.67" width="1384.49" height="37.55" rx="6.35" ry="6.35" transform="translate(1522.99 1370.9) rotate(-180)"/><g><path class="cls-7" d="m903.78,537.41c-13.04-53.73-55.71-212.07-65.3-247.56-1.17-4.32.34-8.93,3.84-11.72l158.31-126.38c6.87-5.48,17.09-1.33,18.18,7.39l34.47,274.36c.49,3.92-1.11,7.82-4.22,10.26l-126.15,100.8c-6.44,5.05-17.2.8-19.13-7.15Z"/><path class="cls-2" d="m914.35,530.62c-13.04-53.73-55.71-212.07-65.3-247.56-1.17-4.32.34-8.93,3.84-11.72l158.31-126.38c6.87-5.48,17.09-1.33,18.18,7.39l34.47,274.36c.49,3.92-1.11,7.82-4.22,10.26l-127.41,99.83c-6.44,5.05-15.93,1.77-17.86-6.18Z"/></g><g><path class="cls-7" d="m582.79,558.41c-13.04-53.73-55.71-212.07-65.3-247.56-1.17-4.32.34-8.93,3.84-11.72l158.31-126.38c6.87-5.48,17.09-1.33,18.18,7.39l34.47,274.36c.49,3.92-1.11,7.82-4.22,10.26l-126.15,100.8c-6.44,5.05-17.2.8-19.13-7.15Z"/><path class="cls-2" d="m593.36,551.61c-13.04-53.73-55.71-212.07-65.3-247.56-1.17-4.32.34-8.93,3.84-11.72l158.31-126.38c6.87-5.48,17.09-1.33,18.18,7.39l34.47,274.36c.49,3.92-1.11,7.82-4.22,10.26l-127.41,99.83c-6.44,5.05-15.93,1.77-17.86-6.18Z"/></g><g><path class="cls-7" d="m231.59,571.41c-13.04-53.73-55.71-212.07-65.3-247.56-1.17-4.32.34-8.93,3.84-11.72l158.31-126.38c6.87-5.48,17.09-1.33,18.18,7.39l34.47,274.36c.49,3.92-1.11,7.82-4.22,10.26l-126.15,100.8c-6.44,5.05-17.2.8-19.13-7.15Z"/><path class="cls-2" d="m242.16,564.61c-13.04-53.73-55.71-212.07-65.3-247.56-1.17-4.32.34-8.93,3.84-11.72l158.31-126.38c6.87-5.48,17.09-1.33,18.18,7.39l34.47,274.36c.49,3.92-1.11,7.82-4.22,10.26l-127.41,99.83c-6.44,5.05-15.93,1.77-17.86-6.18Z"/></g><ellipse class="cls-4" cx="935.5" cy="593.97" rx="51.36" ry="20.03"/><ellipse class="cls-4" cx="602.86" cy="593.97" rx="51.36" ry="20.03"/><ellipse class="cls-4" cx="244.11" cy="601.66" rx="51.36" ry="20.03"/></g></svg>