<?xml version="1.0" encoding="UTF-8"?><svg id="Layer_2" xmlns="http://www.w3.org/2000/svg" xmlns:xlink="http://www.w3.org/1999/xlink" viewBox="0 0 623.55 788.31"><defs><style>.cls-1{fill:url(#linear-gradient-2);}.cls-2{fill:#fffffd;}.cls-3{fill:#4c087e;}.cls-4{fill:#0ec100;}.cls-5{fill:#869ead;}.cls-6{fill:url(#linear-gradient);}.cls-7{fill:#333132;}.cls-8{fill:#29ffff;}.cls-9{fill:#b6cad8;}.cls-10{fill:#9439db;}.cls-11{fill:#bf0000;}</style><linearGradient id="linear-gradient" x1="125.85" y1="403.31" x2="424.39" y2="574.41" gradientUnits="userSpaceOnUse"><stop offset="0" stop-color="#afccf6"/><stop offset=".94" stop-color="#b6cad8"/></linearGradient><linearGradient id="linear-gradient-2" x1="49.86" y1="81.15" x2="471.41" y2="257.71" xlink:href="#linear-gradient"/></defs><g id="arms_left"><path class="cls-7" d="m460.66,349.83l16.53,88.95s46.55,45.15,54.62,84.79c14.69,72.22,4.4,134.28,4.4,134.28,0,0,27.09-12.36,66.41,2.96,0,0,26.85-62.45-9.51-157.68-36.36-95.23-132.45-153.3-132.45-153.3Z"/></g><g id="Arms_right"><path class="cls-7" d="m152.23,371.28l-3.06,74.81s-49.12,42.34-59.49,81.45c-18.89,71.23-12.26,133.79-12.26,133.79,0,0-14.3-14.81-55.66,3.83,0,0-33.96-68.68,7.91-161.62s122.55-132.26,122.55-132.26Z"/><path class="cls-7" d="m43.87,642.29c-30.48,8.82-47.7,44.84-43.15,85.16.81,7.21,7.99,11.92,14.97,9.91h0c5.34-1.55,8.89-6.62,8.46-12.16-1.92-25.18,9.21-47.28,28.41-52.83s40.41,7.19,52.23,29.51c2.6,4.91,8.31,7.31,13.65,5.76h0c6.97-2.02,10.53-9.83,7.37-16.37-17.68-36.52-51.47-57.78-81.94-48.97Z"/><path class="cls-7" d="m574.65,641.6c-31-6.74-63.29,16.75-78.47,54.37-2.72,6.73,1.36,14.29,8.45,15.83h0c5.43,1.18,10.97-1.59,13.23-6.67,10.29-23.07,30.6-37.2,50.12-32.95s32.13,25.55,31.9,50.8c-.05,5.56,3.83,10.38,9.26,11.56h0c7.09,1.54,13.94-3.64,14.27-10.89,1.82-40.53-17.78-75.31-48.78-82.06Z"/></g><g id="body"><path class="cls-6" d="m464.75,349.83c68.53,270.21-35.23,364.43-88.39,393.95-16.33,9.07-35.43,11.74-53.67,7.7-238.26-52.83-170.45-383.27-170.45-383.27,0,0,74.55,48.16,169.53,41.87s142.98-60.26,142.98-60.26Z"/><path class="cls-9" d="m382.48,771.77c0,6.2-4.28,11.57-10.32,12.98-8.3,1.93-18.42,3.47-29.97,3.56-12.44.1-23.3-1.51-32.06-3.55-6.06-1.41-10.37-6.76-10.37-12.98h0c0-8.07,7.11-14.29,15.1-13.19s17.1,1.84,26.99,1.8c9.29-.04,17.83-.74,25.47-1.8,8.01-1.1,15.16,5.09,15.16,13.18h0Z"/><path class="cls-5" d="m466.36,356.28c0,21.86-69.02,53.81-155.96,53.81s-157.42-17.72-157.42-39.57,70.48-39.57,157.42-39.57,155.96,3.49,155.96,25.34Z"/></g><g id="screw_1"><path class="cls-10" d="m399.6,442.17c-20.41,0-36.95,16.54-36.95,36.95s16.54,36.96,36.95,36.96,36.95-16.54,36.95-36.96-16.54-36.95-36.95-36.95Zm0,58.92c-12.13,0-21.97-9.83-21.97-21.97s9.83-21.96,21.97-21.96,21.97,9.83,21.97,21.96-9.83,21.97-21.97,21.97Z"/><g><g id="_Radial_Repeat_"><rect class="cls-10" x="390.9" y="505.48" width="17.4" height="24.18" transform="translate(799.19 1035.14) rotate(180)"/></g><g id="_Radial_Repeat_-2"><rect class="cls-10" x="363.71" y="494.22" width="17.4" height="24.18" transform="translate(277.73 1127.66) rotate(-135)"/></g><g id="_Radial_Repeat_-3"><rect class="cls-10" x="352.45" y="467.03" width="17.4" height="24.18" transform="translate(-117.97 840.27) rotate(-90)"/></g><g id="_Radial_Repeat_-4"><rect class="cls-10" x="363.71" y="439.85" width="17.4" height="24.18" transform="translate(-210.49 395.7) rotate(-45)"/></g><g id="_Radial_Repeat_-5"><rect class="cls-10" x="390.9" y="428.59" width="17.4" height="24.18"/></g><g id="_Radial_Repeat_-6"><rect class="cls-10" x="418.08" y="439.85" width="17.4" height="24.18" transform="translate(444.57 -169.41) rotate(45)"/></g><g id="_Radial_Repeat_-7"><rect class="cls-10" x="429.34" y="467.03" width="17.4" height="24.18" transform="translate(917.17 41.08) rotate(90)"/></g><g id="_Radial_Repeat_-8"><rect class="cls-10" x="418.08" y="494.22" width="17.4" height="24.18" transform="translate(1086.58 562.54) rotate(135)"/></g></g></g><g id="screw_2"><g><path class="cls-3" d="m445.06,541.15c-11.62-4.7-24.86.91-29.56,12.53-4.7,11.62.91,24.86,12.53,29.56,11.62,4.7,24.86-.91,29.56-12.53,4.7-11.62-.91-24.86-12.53-29.56Zm-13.57,33.55c-6.91-2.79-10.24-10.66-7.45-17.57,2.79-6.91,10.66-10.24,17.57-7.45,6.91,2.79,10.24,10.66,7.45,17.57s-10.66,10.24-17.57,7.45Z"/><g><g id="_Radial_Repeat_-9"><rect class="cls-3" x="422.35" y="576.66" width="10.69" height="14.85" transform="translate(605.15 1285.94) rotate(-157.98)"/></g><g id="_Radial_Repeat_-10"><rect class="cls-3" x="409.46" y="563.99" width="10.69" height="14.85" transform="translate(50.64 1176.36) rotate(-112.98)"/></g><g id="_Radial_Repeat_-11"><rect class="cls-3" x="409.31" y="545.91" width="10.69" height="14.85" transform="translate(-253.8 730.24) rotate(-67.98)"/></g><g id="_Radial_Repeat_-12"><rect class="cls-3" x="421.99" y="533.02" width="10.69" height="14.85" transform="translate(-177.06 209.68) rotate(-22.98)"/></g><g id="_Radial_Repeat_-13"><rect class="cls-3" x="440.06" y="532.87" width="10.69" height="14.85" transform="translate(235.11 -127.6) rotate(22.02)"/></g><g id="_Radial_Repeat_-14"><rect class="cls-3" x="452.95" y="545.55" width="10.69" height="14.85" transform="translate(788.51 -84.81) rotate(67.02)"/></g><g id="_Radial_Repeat_-15"><rect class="cls-3" x="453.1" y="563.62" width="10.69" height="14.85" transform="translate(1159.74 360.2) rotate(112.02)"/></g><g id="_Radial_Repeat_-16"><rect class="cls-3" x="440.42" y="576.51" width="10.69" height="14.85" transform="translate(1084.11 947.55) rotate(157.02)"/></g></g></g></g><g id="face"><path class="cls-1" d="m486.55,281.49c0,14.52-7,28.15-18.8,36.61-28.09,20.12-78.55,48.52-146.64,52.67-82.11,5.01-144.52-28.01-176.3-49.57-12.37-8.39-19.79-22.35-19.79-37.29V112.24c0-14.28,5.46-28.05,15.33-38.38C166.59,46.41,224.91-1.7,310.38.05c81.23,1.66,135.94,47.3,161.06,73.88,9.74,10.3,15.11,23.97,15.11,38.15v169.41Z"/><path class="cls-7" d="m466.69,271.77c0,11.58-6.08,22.29-15.99,28.29-27.11,16.41-76.57,39.86-141.8,40.07-66.12.21-116.27-23.55-143.56-40.06-9.91-6-16-16.71-16-28.3v-96.5c0-12.92,7.52-24.68,19.29-30.03,29.18-13.28,73.21-28.31,128.12-30.15,65.87-2.2,118.42,15.55,150.61,30.15,11.78,5.35,19.33,17.11,19.33,30.05v96.48Z"/><rect class="cls-4" x="173.39" y="417.6" width="15.78" height="15.78" rx="3.59" ry="3.59"/><rect class="cls-11" x="173.39" y="438.88" width="15.78" height="15.78" rx="3.59" ry="3.59"/></g><g id="eyes_open"><g><path class="cls-8" d="m271.51,220.4c0,31.02-20.2,56.18-45.12,56.18s-45.11-25.16-45.11-56.18,20.2-56.19,45.11-56.19c3.16,0,6.25.41,9.23,1.18,12.09,3.13,22.41,12.29,28.84,24.84,4.46,8.71,7.05,19.06,7.05,30.17Z"/><circle class="cls-2" cx="217.69" cy="194.34" r="8.7"/><path class="cls-2" d="m264.46,190.23c-3.5,4.22-8.78,6.92-14.69,6.92-10.51,0-19.03-8.52-19.03-19.03,0-4.9,1.85-9.35,4.88-12.73,12.09,3.13,22.41,12.29,28.84,24.84Z"/></g><g><path class="cls-8" d="m430.32,221.58c0,31.02-20.2,56.18-45.12,56.18s-45.11-25.16-45.11-56.18,20.2-56.19,45.11-56.19c3.16,0,6.25.41,9.23,1.18,12.09,3.13,22.41,12.29,28.84,24.84,4.46,8.71,7.05,19.06,7.05,30.17Z"/><circle class="cls-2" cx="376.5" cy="195.52" r="8.7"/><path class="cls-2" d="m423.27,191.41c-3.5,4.22-8.78,6.92-14.69,6.92-10.51,0-19.03-8.52-19.03-19.03,0-4.9,1.85-9.35,4.88-12.73,12.09,3.13,22.41,12.29,28.84,24.84Z"/></g></g></svg>