<?xml version="1.0" encoding="UTF-8"?><svg id="Layer_2" xmlns="http://www.w3.org/2000/svg" viewBox="0 0 101.07 101.07"><defs><style>.cls-1{fill:#9439db;}</style></defs><g id="screw_1"><path class="cls-1" d="m50.54,13.58c-20.41,0-36.95,16.54-36.95,36.95s16.54,36.96,36.95,36.96,36.95-16.54,36.95-36.96S70.95,13.58,50.54,13.58Zm0,58.92c-12.13,0-21.97-9.83-21.97-21.97s9.83-21.96,21.97-21.96,21.97,9.83,21.97,21.96-9.83,21.97-21.97,21.97Z"/><g><g id="_Radial_Repeat_"><rect class="cls-1" x="41.84" y="76.89" width="17.4" height="24.18" transform="translate(101.07 177.97) rotate(180)"/></g><g id="_Radial_Repeat_-2"><rect class="cls-1" x="14.65" y="65.63" width="17.4" height="24.18" transform="translate(-15.1 149.19) rotate(-135)"/></g><g id="_Radial_Repeat_-3"><rect class="cls-1" x="3.39" y="38.45" width="17.4" height="24.18" transform="translate(-38.45 62.63) rotate(-90)"/></g><g id="_Radial_Repeat_-4"><rect class="cls-1" x="14.65" y="11.26" width="17.4" height="24.18" transform="translate(-9.67 23.35) rotate(-45)"/></g><g id="_Radial_Repeat_-5"><rect class="cls-1" x="41.84" width="17.4" height="24.18"/></g><g id="_Radial_Repeat_-6"><rect class="cls-1" x="69.02" y="11.26" width="17.4" height="24.18" transform="translate(39.28 -48.12) rotate(45)"/></g><g id="_Radial_Repeat_-7"><rect class="cls-1" x="80.28" y="38.45" width="17.4" height="24.18" transform="translate(139.52 -38.45) rotate(90)"/></g><g id="_Radial_Repeat_-8"><rect class="cls-1" x="69.02" y="65.63" width="17.4" height="24.18" transform="translate(187.64 77.72) rotate(135)"/></g></g></g></svg>