<?xml version="1.0" encoding="UTF-8"?><svg id="Layer_2" xmlns="http://www.w3.org/2000/svg" viewBox="0 0 61.57 61.57"><defs><style>.cls-1{fill:#4c087e;}</style></defs><g id="screw_2"><g><path class="cls-1" d="m39.3,9.74c-11.62-4.7-24.86.91-29.56,12.53-4.7,11.62.91,24.86,12.53,29.56,11.62,4.7,24.86-.91,29.56-12.53,4.7-11.62-.91-24.86-12.53-29.56Zm-13.57,33.55c-6.91-2.79-10.24-10.66-7.45-17.57,2.79-6.91,10.66-10.24,17.57-7.45,6.91,2.79,10.24,10.66,7.45,17.57s-10.66,10.24-17.57,7.45Z"/><g><g id="_Radial_Repeat_"><rect class="cls-1" x="16.58" y="45.25" width="10.69" height="14.85" transform="translate(22.5 109.73) rotate(-157.98)"/></g><g id="_Radial_Repeat_-2"><rect class="cls-1" x="3.69" y="32.57" width="10.69" height="14.85" transform="translate(-24.26 63.94) rotate(-112.98)"/></g><g id="_Radial_Repeat_-3"><rect class="cls-1" x="3.54" y="14.5" width="10.69" height="14.85" transform="translate(-14.77 21.94) rotate(-67.98)"/></g><g id="_Radial_Repeat_-4"><rect class="cls-1" x="16.22" y="1.61" width="10.69" height="14.85" transform="translate(-1.82 9.13) rotate(-22.98)"/></g><g id="_Radial_Repeat_-5"><rect class="cls-1" x="34.29" y="1.46" width="10.69" height="14.85" transform="translate(6.23 -14.22) rotate(22.02)"/></g><g id="_Radial_Repeat_-6"><rect class="cls-1" x="47.18" y="14.14" width="10.69" height="14.85" transform="translate(51.88 -35.21) rotate(67.02)"/></g><g id="_Radial_Repeat_-7"><rect class="cls-1" x="47.33" y="32.21" width="10.69" height="14.85" transform="translate(109.18 5.67) rotate(112.02)"/></g><g id="_Radial_Repeat_-8"><rect class="cls-1" x="34.66" y="45.1" width="10.69" height="14.85" transform="translate(97.33 85.27) rotate(157.02)"/></g></g></g></g></svg>