<?xml version="1.0" encoding="UTF-8"?><svg id="Layer_2" xmlns="http://www.w3.org/2000/svg" xmlns:xlink="http://www.w3.org/1999/xlink" viewBox="0 0 987.55 992.56"><defs><style>.cls-1{fill:#fff;}.cls-2{fill:none;stroke:#000;stroke-miterlimit:10;stroke-width:11px;}.cls-3{fill:#592400;}.cls-4{fill:#090730;}.cls-5{fill:#c68252;}.cls-6{fill:url(#linear-gradient);}.cls-7{fill:#13134f;}</style><linearGradient id="linear-gradient" x1="262.43" y1="706.75" x2="798.9" y2="595.86" gradientTransform="translate(1064.05) rotate(-180) scale(1 -1)" gradientUnits="userSpaceOnUse"><stop offset="0" stop-color="#090730"/><stop offset=".89" stop-color="#010008"/></linearGradient></defs><g id="Shush"><path class="cls-5" d="m286.34,992.56s109.48-126.9,90-196.28c-19.48-69.39-96.17-38.95-96.17-38.95l-82.78,19.48s-14.61,1.22-15.83-8.52,0-191.12,0-191.12l-59.65-47.48s-10.96-6.1-4.87-16.44c6.09-10.34,53.56-63.9,54.78-89.47s-19.48-125.39-19.48-125.39l41.39-68.17s178.95-297.03,450.41-8.52-41.97,521.16-41.97,521.16c0,0-38.38,194.83,27.65,249.7,0,0-228.09,0-343.49,0Z"/><g><path class="cls-1" d="m204.11,410.28c0,39.2,12.77,71.67,29.47,77.33,1.72.56,3.44.87,5.22.87,19.15,0,34.65-35.02,34.65-78.2s-15.51-78.2-34.65-78.2c-5.75,0-11.17,3.14-15.93,8.7-11.14,13.02-18.75,39.25-18.75,69.5Z"/><path class="cls-3" d="m204.11,410.28c0,39.2,11.56,71.67,26.67,77.33,10.08-12.99,16.97-39.23,16.97-69.5,0-39.23-11.56-71.67-26.67-77.33-10.08,13.02-16.97,39.25-16.97,69.5Z"/></g><ellipse class="cls-2" cx="144.15" cy="398.29" rx="9.59" ry="85.77"/><path class="cls-7" d="m207.14,297.36c18.72,3.97,40.57,10.01,64.21,19.4,27.06,10.74,49.53,23.1,67.31,34.46,11.85-28.93,23.7-57.86,35.54-86.79-16.44-10.46-37.51-21.61-63.14-30.29-11.63-3.94-22.68-6.87-32.91-9.04-6.22,12.6-12.44,25.2-18.67,37.8h-5.47c1.42-15.31,2.84-30.61,4.26-45.92-5.2-2.13-10.39-4.27-15.59-6.4l-35.54,86.79Z"/><g><path class="cls-4" d="m267.66,184.32s-.91,42-88.56,25.56c0,0-71.21-32.87-18.26-105.91,0,0,16.43-18.26,60.26-31.04,0,0,101.34-136.04,237.38-36.52,0,0,271.16-105.91,266.6,189.9,0,0,70.3,5.48,46.56,96.78,0,0,148.82,59.35-2.74,199.95,0,0-65.74,52.95-103.17,42,0,0-16.43,129.65-227.34,115.95,0,0-9.13,23.74-40.17,10.96,0,0,62.08-22.83,21.91-101.34l-21.91-41.09s31.04,36.52,55.69-54.78c24.65-91.3-30.13-88.56-30.13-88.56,0,0-28.3,8.22-23.74,44.74,0,0-26.48-99.52,40.17-146.99,0,0-151.56-25.56-172.56-119.6Z"/><path class="cls-6" d="m922.33,722.14s116.99-32.52,37.6-212.32c0,0-98.19-128.15-236.07-17.21,0,0-64.76-80.34-137.88-19.13-73.12,61.21,0,103.42,0,103.42,0,0-98.19-34.56-127.43,18.99,0,0-73.74,146.14,70.72,151.49,0,0-49.83,34.05-37.29,76.13,12.53,42.08,108.63,34.43,108.63,34.43,0,0-31.34,84.16,54.32,86.07,85.65,1.91,73.12-86.07,73.12-86.07,0,0,94.01,55.47,144.15,7.65,50.14-47.82,50.14-143.46,50.14-143.46Z"/></g><line class="cls-2" x1="134.56" y1="414.2" x2="406.6" y2="419.14"/><ellipse class="cls-1" cx="215.02" cy="671.42" rx="10.91" ry="24.31"/><path class="cls-5" d="m175.86,927.48v65.08H10.59l-9.35-64.66s-3.34-13.02.94-31.6c4.07-17.71,20.86-15.72,22.42-15.5-.74-.19-4.61-1.83-2.87-15.58,1.93-15.16,20.51-13.67,20.51-13.67-4.59-4.8,1.71-30.76,1.71-30.76,0,0,10.15-11.85,17.41-12.06,7.27-.21,49.13,26.49,49.13,26.49l4.63-21.88,28.06-127.57s3.33-30.51,17.32-31.04c14-.53,12.46,12.49,12.46,12.49l2.9,260.26Z"/></g></svg>