<?xml version="1.0" encoding="UTF-8"?><svg id="Layer_2" xmlns="http://www.w3.org/2000/svg" xmlns:xlink="http://www.w3.org/1999/xlink" viewBox="0 0 752.43 884.43"><defs><style>.cls-1{fill:url(#linear-gradient-2);}.cls-2,.cls-3,.cls-4{fill:#fff;}.cls-5{fill:#2b2d33;}.cls-3,.cls-6{font-family:SourceSansPro-Regular, 'Source Sans Pro';font-size:48px;}.cls-7{fill:url(#New_Pattern);}.cls-8{letter-spacing:0em;}.cls-9{fill:url(#New_Pattern-2);}.cls-10{fill:#1b192b;}.cls-11{fill:#b6adf4;}.cls-12{opacity:.19;}.cls-13{letter-spacing:0em;}.cls-14{fill:#d3d8ff;}.cls-15{fill:#353442;}.cls-16{fill:#c5c9ff;}.cls-17{fill:#141416;}.cls-18{fill:#fcffc7;}.cls-19{fill:none;}.cls-20{fill:#c68252;}.cls-4{opacity:.13;}.cls-21{fill:#799aaf;}.cls-22{letter-spacing:-.01em;}.cls-23{fill:url(#linear-gradient);}.cls-24{fill:#68708e;}.cls-25{fill:#b6cad8;}.cls-26{letter-spacing:-.01em;}.cls-27{fill:#fffff5;}</style><pattern id="New_Pattern" x="0" y="0" width="430.98" height="398.1" patternTransform="translate(-866.07 -3325.77)" patternUnits="userSpaceOnUse" viewBox="0 0 430.98 398.1"><g><rect class="cls-19" y="0" width="430.98" height="398.1"/><g><rect class="cls-11" y="357.79" width="430.98" height="40.31"/><rect class="cls-14" y="318.48" width="430.98" height="40.31"/></g><g><rect class="cls-11" y="278.17" width="430.98" height="40.31"/><rect class="cls-14" y="238.86" width="430.98" height="40.31"/></g><g><rect class="cls-11" y="198.55" width="430.98" height="40.31"/><rect class="cls-14" y="159.24" width="430.98" height="40.31"/></g><g><rect class="cls-11" y="118.93" width="430.98" height="40.31"/><rect class="cls-14" y="79.62" width="430.98" height="40.31"/></g><g><rect class="cls-11" y="39.31" width="430.98" height="40.31"/><rect class="cls-14" y="0" width="430.98" height="40.31"/></g></g></pattern><pattern id="New_Pattern-2" patternTransform="translate(1662.47 349.34) scale(1.4 1.66)" xlink:href="#New_Pattern"/><linearGradient id="linear-gradient" x1="289.8" y1="497.87" x2="746.33" y2="497.87" gradientUnits="userSpaceOnUse"><stop offset=".12" stop-color="#090730"/><stop offset=".97" stop-color="#010008"/></linearGradient><linearGradient id="linear-gradient-2" x1="227.84" y1="338.99" x2="894.78" y2="338.99" gradientTransform="translate(-44.79 44.15) rotate(-9.23)" xlink:href="#linear-gradient"/></defs><g id="Layer_13"><text class="cls-6" transform="translate(101.71 90.89)"><tspan class="cls-22" x="0" y="0">L</tspan><tspan x="22.75" y="0">o</tspan><tspan class="cls-13" x="48.77" y="0">r</tspan><tspan x="64.99" y="0">em ipsum</tspan></text></g><g id="me_on_computer"><rect class="cls-5" x="15.45" width="721.53" height="436.6" rx="26.81" ry="26.81"/><rect class="cls-5" x="341.74" y="425.87" width="96.51" height="125.62"/><rect class="cls-5" x="287.11" y="551.49" width="205.79" height="19.91"/><rect class="cls-17" x="341.74" y="436.6" width="96.51" height="31.15"/><polyline class="cls-24" points="542.43 413.52 39.19 413.52 39.19 23.07 275.87 23.07"/><polyline class="cls-24" points="275.87 23.07 713.23 23.07 713.23 413.52 542.43 413.52"/><polyline class="cls-4" points="275.87 23.07 713.23 23.07 713.23 413.52 542.43 413.52"/><rect class="cls-2" x="97.66" y="210.62" width="411.77" height="38.81"/><rect class="cls-16" x="514.34" y="210.62" width="149.11" height="38.81" rx="16.34" ry="16.34"/><rect class="cls-7" x="237.56" y="713.36" width="241.55" height="101.11"/><path class="cls-21" d="m0,608.68h752.43v13.66c0,8.24-6.69,14.94-14.94,14.94H14.94C6.69,637.28,0,630.58,0,622.34v-13.66H0Z"/><path class="cls-25" d="m752.43,608.68H0s116.2-104.84,116.2-104.84c4.26-3.84,9.79-5.97,15.52-5.97h489c5.73,0,11.26,2.13,15.52,5.97l116.2,104.84Z"/><rect class="cls-10" x="340.47" y="702.64" width="35.74" height="96"/><rect class="cls-15" x="224.8" y="798.64" width="267.09" height="79.66" rx="21.84" ry="21.84"/><path class="cls-9" d="m315.69,445.64h85.31c69.89,0,126.62,56.74,126.62,126.62v40.76H189.06v-40.76c0-69.89,56.74-126.62,126.62-126.62Z"/><path class="cls-15" d="m323.37,450.38h69.45c54.67,0,99.06,44.39,99.06,99.06v131.23c0,20.57-16.7,37.28-37.28,37.28h-193.02c-20.57,0-37.28-16.7-37.28-37.28v-131.23c0-54.67,44.39-99.06,99.06-99.06Z"/><rect class="cls-10" x="188.82" y="637.28" width="35.49" height="78.13"/><rect class="cls-10" x="491.69" y="652.09" width="35.49" height="78.13"/><path class="cls-23" d="m332.99,429.22s-58.21,12.26-16.85,72c0,0-53.75,46.64-7.66,74.3,3.83,2.3,47.49,39.83,87.32-6.89l7.4-15.06s27.83,13.53,43.91-17.11c9.54-18.17,7.4-38.11,4.09-51.33-2.24-8.94-9.67-15.63-18.8-16.96l-9.8-1.42s9.96-20.68-1.53-32.94-36.77-58.21-88.09-4.6Z"/><path class="cls-1" d="m280.01,403.55c-.6-3.68-35.64,10.7-43.42-48.82,0,0-6.68-45.73,23.59-45.36,0,0-26.39-48.57,6.96-70.98,33.36-22.41,38.29.95,38.29.95,0,0,13.75-52.45,59.51-49.69s53.84,47.88,53.84,47.88c0,0,26.3,1.53,41.71,35.96,15.41,34.42-11.02,55.33-11.02,55.33,0,0,32.75,6.38,30.67,35.41-2.08,29.03-27.28,34.26-27.28,34.26,0,0,20.31,22.75-14.87,40.93s-44.03-20.03-44.03-20.03c0,0-7.62,36.73-39.84,33.66s-34.35-34.82-34.35-34.82c0,0-11.47,33.96-34.81,18.12-23.34-15.84-4.95-32.8-4.95-32.8Z"/><rect class="cls-20" x="188.82" y="591.95" width="35.98" height="45.33"/><rect class="cls-20" x="491.44" y="608.68" width="35.98" height="45.33"/><rect class="cls-25" x="97.66" y="637.28" width="24.51" height="241.02"/><rect class="cls-21" x="97.66" y="637.28" width="24.51" height="39.06"/><rect class="cls-12" x="97.66" y="637.28" width="24.51" height="13.79"/><rect class="cls-25" x="610.01" y="637.28" width="24.51" height="247.15"/><rect class="cls-21" x="610.01" y="637.28" width="24.51" height="40.34" transform="translate(1244.53 1314.89) rotate(180)"/><rect class="cls-12" x="610.01" y="637.28" width="24.51" height="19.91"/><text class="cls-3" transform="translate(97.86 179.54)"><tspan x="0" y="0">Dall</tspan><tspan class="cls-26" x="78.24" y="0">.</tspan><tspan class="cls-8" x="89.71" y="0">e</tspan></text><path class="cls-27" d="m384.33,112.52c0,11.33-5.53,21.13-13.57,25.86v16.77h-22.38v-17.12c-7.73-4.85-12.99-14.46-12.99-25.51,0-15.95,10.96-28.88,24.47-28.88s24.47,12.93,24.47,28.88Z"/><path class="cls-18" d="m370.65,119.49v16.77h-22.38v-17.12"/></g><g id="Shush"><g><g id="_Radial_Repeat_"><rect class="cls-27" x="285.99" y="82.2" width="9.15" height="34.29" rx="4.58" ry="4.58" transform="translate(133.21 363.03) rotate(-78.05)"/></g><g id="_Radial_Repeat_-2"><rect class="cls-27" x="323.75" y="34.21" width="9.15" height="34.29" rx="4.58" ry="4.58" transform="translate(9.96 146.62) rotate(-25.55)"/></g><g id="_Radial_Repeat_-3"><rect class="cls-27" x="384.81" y="34.96" width="9.15" height="34.29" rx="4.58" ry="4.58" transform="translate(65.9 -170.82) rotate(26.95)"/></g><g id="_Radial_Repeat_-4"><rect class="cls-27" x="421.38" y="83.85" width="9.15" height="34.29" rx="4.58" ry="4.58" transform="translate(447.27 -336.25) rotate(79.45)"/></g></g></g></svg>