<?xml version="1.0" encoding="UTF-8"?><svg id="Layer_2" xmlns="http://www.w3.org/2000/svg" xmlns:xlink="http://www.w3.org/1999/xlink" viewBox="0 0 1260.97 984.53"><defs><style>.cls-1{fill:url(#linear-gradient-2);}.cls-2{fill:#f0f0f0;}.cls-3{fill:#fff;}.cls-4{fill:#2b2d33;}.cls-5{fill:#fffffd;}.cls-6{fill:#9e005d;}.cls-7{fill:#323147;}.cls-8{fill:#bbbae2;}.cls-9{fill:url(#New_Pattern);}.cls-10{fill:#010008;}.cls-11{fill:#662d91;}.cls-12{fill:#592400;}.cls-13{fill:url(#New_Pattern-2);}.cls-14{fill:#090730;}.cls-15{fill:#1b192b;}.cls-16{fill:#b6adf4;}.cls-17{stroke-width:3px;}.cls-17,.cls-18{stroke:#000;stroke-miterlimit:10;}.cls-17,.cls-18,.cls-19{fill:none;}.cls-20{fill:#869ead;}.cls-21{opacity:.23;}.cls-22{opacity:.4;}.cls-23{fill:#faf3ff;}.cls-24{fill:#d3d8ff;}.cls-18{stroke-width:2px;}.cls-25{fill:#353442;}.cls-26{fill:#21202d;}.cls-27{fill:#c68252;}.cls-28{fill:#e69249;}.cls-29{fill:#799aaf;}.cls-30{fill:#c15833;}.cls-31{fill:url(#linear-gradient-3);}.cls-32{fill:url(#linear-gradient);}.cls-33{fill:#333132;}.cls-34{fill:#00a99d;}.cls-35{fill:#29ffff;}.cls-36{fill:#b6cad8;}.cls-37{fill:#b73030;}.cls-38{fill:#13134f;}</style><pattern id="New_Pattern" x="0" y="0" width="430.98" height="398.1" patternTransform="translate(-2477.97 -3017.31)" patternUnits="userSpaceOnUse" viewBox="0 0 430.98 398.1"><g><rect class="cls-19" y="0" width="430.98" height="398.1"/><g><rect class="cls-16" y="357.79" width="430.98" height="40.31"/><rect class="cls-24" y="318.48" width="430.98" height="40.31"/></g><g><rect class="cls-16" y="278.17" width="430.98" height="40.31"/><rect class="cls-24" y="238.86" width="430.98" height="40.31"/></g><g><rect class="cls-16" y="198.55" width="430.98" height="40.31"/><rect class="cls-24" y="159.24" width="430.98" height="40.31"/></g><g><rect class="cls-16" y="118.93" width="430.98" height="40.31"/><rect class="cls-24" y="79.62" width="430.98" height="40.31"/></g><g><rect class="cls-16" y="39.31" width="430.98" height="40.31"/><rect class="cls-24" y="0" width="430.98" height="40.31"/></g></g></pattern><pattern id="New_Pattern-2" patternTransform="translate(-2264.84 -2910.94)" xlink:href="#New_Pattern"/><linearGradient id="linear-gradient" x1="51.99" y1="284.69" x2="202.02" y2="253.68" gradientUnits="userSpaceOnUse"><stop offset="0" stop-color="#090730"/><stop offset=".89" stop-color="#010008"/></linearGradient><linearGradient id="linear-gradient-2" x1="712.23" y1="923.46" x2="939.38" y2="923.46" gradientTransform="translate(181.74 -373.79) rotate(-5.21) scale(1 .91)" gradientUnits="userSpaceOnUse"><stop offset="0" stop-color="#afccf6"/><stop offset=".94" stop-color="#b6cad8"/></linearGradient><linearGradient id="linear-gradient-3" x1="972.62" y1="120.26" x2="1199.76" y2="120.26" gradientTransform="matrix(1, 0, 0, 1, 0, 0)" xlink:href="#linear-gradient-2"/></defs><g id="Layer_15"><path class="cls-26" d="m466.4,512.77c.16.66-.27,1.33-.93,1.47s-1.45.14-2.32.14h-87.8c-1.56,0-3.12.09-4.32-.76-2.3-3.99-2.72-4.97-2.72-9,0-18.05,26.63-27.05,48.78-27.05,20.26,0,45.23,17.98,49.32,35.21Z"/><path class="cls-23" d="m1211.09,984.53H75.97c-68.96,0-63.54-37.22-1.38-74.95h0c51.01-30.96,125.09-52.26,173.17-52.26h791.55c48.09,0,122.16,21.3,173.17,52.26h0c62.16,37.73,67.58,74.95-1.38,74.95Z"/><path class="cls-27" d="m190.97,355.46s-25.5-26.32-20.05-45.73,26.89-10.89,26.89-10.89l23.15,5.45s4.09.34,4.43-2.38,0-53.45,0-53.45l16.68-13.28s3.06-1.71,1.36-4.6c-1.7-2.89-14.98-17.87-15.32-25.02s5.45-35.06,5.45-35.06l-11.57-19.06s-50.04-83.06-125.96-2.38,39.49,147.4,39.49,147.4c0,0,16.16,16.29-2.3,31.63,0,0,28.82,46.09,57.76,27.37Z"/><path class="cls-36" d="m676.8,526.08v6.38c0,5.43-4.4,9.83-9.83,9.83h-145.66v362.68h37.09c3.21,0,5.81,2.6,5.81,5.81v9.7c0,3.21-2.6,5.81-5.81,5.81h-80.3c-3.21,0-5.81-2.6-5.81-5.81v-9.7c0-3.21,2.6-5.81,5.81-5.81h32.49v-362.68h-167.36c-5.43,0-9.83-4.4-9.83-9.83v-6.38c0-5.43,4.4-9.83,9.83-9.83h323.74c5.43,0,9.83,4.4,9.83,9.83Z"/><path class="cls-21" d="m510.42,904.62h-31.85c-3.56,0-6.45,2.49-6.45,5.55v1.9s0,0,0,0h91.92s0,0,0,0v-1.9c0-3.07-2.89-5.55-6.45-5.55h-47.17Z"/><path class="cls-4" d="m623.68,508.15c.47,3.32-.69,6.38-2.82,8.49-1.8,1.8-4.29,2.92-7.04,2.92h-51.47c-4.99,0-9.43-3.56-10.13-8.51-.47-3.32.69-6.38,2.82-8.49,1.8-1.8,4.29-2.92,7.04-2.92h23.06v-234.13c0-2.4-1.94-4.34-4.34-4.34h-21.35v-24.51h28.5c5.5,0,9.96,4.46,9.96,9.96v253.02h15.64c4.99,0,9.43,3.56,10.13,8.51Z"/><path class="cls-4" d="m551.95,435.31h-7.15c4.11-55.23,6.56-114.62,6.47-177.7-.09-60.4-2.51-117.39-6.47-170.55h7.15c4.52,52.37,7.36,109.18,7.49,169.87.13,63.94-2.77,123.61-7.49,178.38Z"/><rect class="cls-28" x="710.25" y="57.27" width="12.26" height="496.5" rx="6.13" ry="6.13"/><path class="cls-28" d="m694.01,546.42h20.43v370.7c0,3.3-2.68,5.98-5.98,5.98h-8.46c-3.3,0-5.98-2.68-5.98-5.98v-370.7h0Z" transform="translate(139.22 -111.74) rotate(10.06)"/><path class="cls-28" d="m776.01,543.05h20.43v372.43c0,2.35-1.91,4.26-4.26,4.26h-11.91c-2.35,0-4.26-1.91-4.26-4.26v-372.43h0Z" transform="translate(-108.59 137.77) rotate(-9.37)"/><rect class="cls-2" x="728.64" y="81.61" width="33.7" height="447.83" rx="4.47" ry="4.47" transform="translate(-5.85 14.69) rotate(-1.12)"/><rect class="cls-28" x="704.22" y="750.88" width="92.84" height="19.4"/><path class="cls-26" d="m127.64,594.37s230.81-35.74,257.36-10.21c0,0,12.17,180.24,3.74,214.45h12.34l1.53,51.84s-14.2-.1-31.66,2.3c-18.6,2.56-43.91,8.68-52.85-.77l-8.43-52.09,12-.26s-13.53-70.47,1.79-130.98c0,0,2.3,13.02-110.81,23.23,0,0-56.68,9.45-73.28-17.87,0,0-14.04-37.28-11.74-79.66Z"/><path class="cls-7" d="m405.14,853.78h-6.26c2.41-.09,4.56-.11,6.26,0Z"/><path class="cls-7" d="m405.14,853.78h-6.26c2.41-.09,4.56-.11,6.26,0Z"/><path class="cls-9" d="m123.3,578.76s-7.49,32.34,31.32,9.19c0,0,96.34,2.72,116.43-9.19,0,0,5.79-4.09-7.15-4.09,0,0,1.7-14.3-1.7-21.45,0,0-6.81-123.57-35.4-156.6-28.6-33.02-36.09-43.57-36.09-43.57,0,0-20.43,8.85-52.43-29.28l-5.45,2.72s9.73,17.36-10.11,34.04c0,0-26.99,108.94.58,218.21Z"/><path class="cls-27" d="m154.69,463.37s-10.72,66.77,52.09,56.05c62.81-10.72,140.94-13.79,140.94-13.79,0,0,22.98,12.77,33.7-3.57s27.57-22.47,71.49-2.04c0,0,10.72,3.06,7.15-1.02-3.57-4.09-58.04-38.96-58.04-38.96,0,0-22.81-17.21-52.43,13.77l-8.85,4.94s-83.06,0-83.57.34-36.26-3.91-46.47,8.85l-1.19-31.79-54.81-.86v8.1Z"/><path class="cls-13" d="m165.69,367.5s22.98-8.43,37.53,45.19l14.55,39.83s-48.26,22.21-79.66,3.06l6.13-55.15s1.37-41.13,21.45-32.94Z"/><path class="cls-3" d="m190.65,275.43c2.34,1.06,6.42,2.54,11.69,2.67,3.95.1,7.24-.59,9.61-1.32.94-.29,1.62-1.11,1.73-2.09l2.2-19.81c.18-1.61-1.21-2.94-2.81-2.71-2.06.3-4.49.46-7.2.29-5.48-.34-9.77-1.9-12.45-3.12-5.93.81-10.66,5.26-11.7,10.88-1.17,6.32,2.55,12.85,8.93,15.21Z"/><g><path class="cls-3" d="m219.09,201.79c0,10.96-3.57,20.04-8.24,21.63-.48.16-.96.24-1.46.24-5.35,0-9.69-9.79-9.69-21.87s4.34-21.87,9.69-21.87c1.61,0,3.12.88,4.46,2.43,3.11,3.64,5.24,10.98,5.24,19.44Z"/><path class="cls-12" d="m219.09,201.79c0,10.96-3.23,20.04-7.46,21.63-2.82-3.63-4.75-10.97-4.75-19.44,0-10.97,3.23-20.04,7.46-21.63,2.82,3.64,4.75,10.98,4.75,19.44Z"/></g><ellipse class="cls-18" cx="235.86" cy="208.31" rx="2.68" ry="23.98"/><line class="cls-17" x1="131.05" y1="209.4" x2="233.18" y2="201.79"/><path class="cls-38" d="m218.24,170.21c-5.23,1.11-11.34,2.8-17.96,5.42-7.57,3-13.85,6.46-18.82,9.64-3.31-8.09-6.63-16.18-9.94-24.27,4.6-2.93,10.49-6.04,17.66-8.47,3.25-1.1,6.34-1.92,9.2-2.53,1.74,3.52,3.48,7.05,5.22,10.57h1.53l-1.19-12.84c1.45-.6,2.91-1.19,4.36-1.79l9.94,24.27Z"/><g><path class="cls-14" d="m201.32,138.59s.26,11.74,24.77,7.15c0,0,19.91-9.19,5.11-29.62,0,0-4.6-5.11-16.85-8.68,0,0-28.34-38.04-66.38-10.21,0,0-75.83-29.62-74.55,53.11,0,0-19.66,1.53-13.02,27.06,0,0-41.62,16.6.77,55.91,0,0,18.38,14.81,28.85,11.74,0,0,4.6,36.26,63.57,32.43,0,0,2.55,6.64,11.23,3.06,0,0-17.36-6.38-6.13-28.34l6.13-11.49s-8.68,10.21-15.57-15.32,8.43-24.77,8.43-24.77c0,0,7.91,2.3,6.64,12.51,0,0,7.4-27.83-11.23-41.11,0,0,42.38-7.15,48.26-33.45Z"/><path class="cls-32" d="m18.24,288.99s-32.72-9.09-10.52-59.37c0,0,27.46-35.84,66.02-4.81,0,0,18.11-22.47,38.56-5.35,20.45,17.12,0,28.92,0,28.92,0,0,27.46-9.67,35.64,5.31,0,0,20.62,40.87-19.78,42.36,0,0,13.93,9.52,10.43,21.29-3.51,11.77-30.38,9.63-30.38,9.63,0,0,8.76,23.54-15.19,24.07s-20.45-24.07-20.45-24.07c0,0-26.29,15.51-40.31,2.14-14.02-13.37-14.02-40.12-14.02-40.12Z"/></g><g><path class="cls-10" d="m316.81,922.71c-17.49,5.14-42.81,10.48-73.53,9.96-26.69-.46-48.94-5.2-65.11-9.96v-18.77h138.64v18.77Z"/><path class="cls-25" d="m97.17,529.26h-43.35c-7.9,0-14.3-6.4-14.3-14.3v-151.79c0-16.71,13.55-30.26,30.26-30.26h9.19c16.71,0,30.26,13.55,30.26,30.26-1.41,6.62-3.24,16.87-3.92,29.48-1.58,29.24,4.33,46.41,6.98,68.95,1.57,13.35,2.41,32.03-.96,55.33-1.02,7.06-7.03,12.33-14.16,12.33Z"/><path class="cls-15" d="m60.98,529.26l9.96,139.15s-5.36,76.78,62.81,66.35l3.06-13.49s-42.13,9.19-49.02-33.7-11.19-158.3-11.19-158.3h-15.62Z"/><path class="cls-25" d="m65.02,585.73s30.43-32.98,59.53-26.85v-17.36s-33.07-7.8-61.34,18.95l1.81,25.26Z"/><path class="cls-25" d="m307.43,740.1l-159.42,6.13c-9.23.35-16.34-7.85-14.44-16.66l5.32-24.68c1.19-5.5,5.66-9.77,11.34-10.76,29.67-5.21,84.93-8.22,84.93-8.22,18.57-.51,37.15.87,55.73.68,8.3-.09,18.87-.29,22.52,5.67,3.33,5.43-2.82,9.91-1.23,21.99,1.33,10.02,6.54,14.4,3.88,19.8-1.75,3.55-5.74,5.21-8.63,6.05Z"/><ellipse class="cls-25" cx="247.49" cy="903.94" rx="69.32" ry="8.81"/><polygon class="cls-15" points="255.53 901.03 239.44 901.03 239.44 742.4 255.53 741.94 255.53 901.03"/><path class="cls-25" d="m285.52,558.72l-157.14,13.79c-4.78.42-8.76-3.61-8.29-8.38l2.43-24.6c.38-3.83,3.55-6.79,7.4-6.9l153.7-4.39c4.11-.12,7.58,3.04,7.86,7.14l1.02,15.2c.28,4.16-2.82,7.77-6.97,8.14Z"/></g><path class="cls-27" d="m333.4,855.05v20.43s65.2,11.57,100.26,10.89c15.18-.29,19.6-5.89,20.83-10.36,0,0-59.81-21.46-66.96-25.3l-54.13,4.34Z"/><path class="cls-37" d="m332.89,873.92s-18.64,36.67,45.19,16.6c0,0,81.96,35.76,108,6.01l3.06-6.01-37.79-16.6s15.57,20.94-118.47,0Z"/><path class="cls-7" d="m402.62,850.77c-1.7-.11-3.85-.09-6.26,0-11.99.47-30.24,3.01-30.24,3.01-47.86,8.88-48.52-3.01-48.52-3.01l-7.91-50.56,91.4-1.29,1.53,51.85Z"/><rect class="cls-30" x="747.91" y="550.88" width="20.43" height="20.43" transform="translate(-81.24 130.92) rotate(-9.37)"/><rect class="cls-30" x="725.05" y="549.62" width="20.43" height="20.43" transform="translate(1369.56 1231.9) rotate(-170.63)"/><rect class="cls-28" x="698" y="529.26" width="94.98" height="24.51" rx="12.26" ry="12.26"/><path class="cls-26" d="m14.91,528.25v7.11c0-4.03-.42-8.16-1.22-12.36.78,1.59,1.22,3.37,1.22,5.25Z"/></g><g id="Layer_16"><ellipse class="cls-11" cx="1022.78" cy="793.07" rx="56.74" ry="9.17"/><path class="cls-33" d="m1058.31,266.63s-68.35,118.74-191.15,102.21l1.64,30.66s117.82,58.12,210.72-111.22l-21.21-21.65Z"/><path class="cls-33" d="m883.74,386.34c0,31.15-24.23,57.81-55.01,53.08-8.52-1.31-12.79-9.48-15.51-14.25-1.18-2.06-1.57-4.48-1.09-6.81l.05-.26c1.65-7.97,11.73-10.48,17-4.27,1.49,1.75,2.79,2.99,3.7,3.21,11.61,2.76,28.47-12.25,28.47-30.69s-17.14-31.23-27.64-23.22c-1.21.93-4.3,3.39-7.73,6.05-5.68,4.39-13.99,1.34-15.48-5.68l-.83-3.92c-.57-2.69.01-5.51,1.64-7.73,4.2-5.75,12.12-15.02,14.39-16.37,20.6-12.16,58.05,19.72,58.05,50.86Z"/><g><path class="cls-1" d="m1092.49,519.85h0c-62.47,5.7-117.11-33.63-122.06-87.85l-15.76-172.77c28.84,3.75,67.4,6.27,112.55,2.3,46.73-4.11,85.4-13.84,113.65-22.93,5.25,57.59,10.51,115.18,15.76,172.77,4.95,54.22-41.68,102.79-104.15,108.49Z"/><ellipse class="cls-20" cx="1067.78" cy="248.91" rx="114.44" ry="15.64" transform="translate(-18.2 98.03) rotate(-5.21)"/></g><path class="cls-31" d="m1199.76,153.53c0,39.15-27.96,73.17-67.46,81.91-16.2,3.59-34.65,5.72-54.95,4.9-42.56-1.73-75.27-15.75-94.52-26.29-6.31-3.45-10.22-9.9-10.22-16.91V45.37c2.97-14.93,12.09-21.56,27.3-28.75,20.89-9.88,37.91-15.16,77.44-16.48,18.09-.6,34.82.71,49.92,3.11,41.89,6.65,72.49,41.87,72.49,82.88v67.4Z"/><path class="cls-33" d="m1126.37,116.93v42.59c0,17.95-11.08,34.16-27.98,40.58-16.23,6.17-36.69,11.74-60.63,13.59-13.81,1.06-39.83-4.38-51.28-5.51-18.11-4.98-13.91-30.39-13.91-54.8v-61.29c0-7.9-.88-17.43.04-24.61,15.56-5.23,40.64-8.07,66.81-6.38,25.82,1.68,47.03,9.15,62.63,16.85,14.91,7.35,24.31,22.46,24.31,38.97Z"/><ellipse class="cls-35" cx="1016.29" cy="140.34" rx="19.28" ry="42.83"/><ellipse class="cls-5" cx="1032.77" cy="120.01" rx="13.37" ry="15.55"/><path class="cls-36" d="m1148.39,527.31c1.28,6.43-1.5,12.97-6.99,16.56-6.87,4.49-16.72,9.38-29.3,11.46-10.47,1.73-19.67.98-26.75-.38-6.37-1.22-11.33-6.23-12.59-12.59h0c-1.98-9.97,5.71-19.23,15.87-19.13,4.43.04,9.25-.23,14.36-.97,9.05-1.31,16.92-3.8,23.49-6.6,9.32-3.97,19.93,1.71,21.9,11.65h0Z"/><path class="cls-33" d="m1061.5,337.16c6.04,41.44,3.03,137-139.25,179.23l19.27,46.17s170.86-72.17,154.27-229.82c-.92-8.76-8.38-15.37-17.18-15.37h0c-10.55,0-18.63,9.36-17.11,19.79Z"/><path class="cls-33" d="m956.63,531.05c-8.52-24.31-38.5-36.65-70.98-31.15-5.81.98-9.31,7.02-7.36,12.58h0c1.49,4.27,5.76,6.91,10.24,6.32,20.33-2.69,38.75,5.34,44.11,20.66,5.36,15.31-4.01,33.09-21.57,43.67-3.87,2.33-5.55,7.06-4.06,11.32h0c1.95,5.56,8.44,8.09,13.6,5.24,28.81-15.97,44.53-44.33,36.01-68.64Z"/><path class="cls-11" d="m878.45,349.51l-63.29,56.73c-4.09,3.67-9.31,4.43-11.98,1.76h0c-2.83-2.83-1.79-8.47,2.34-12.59l60.01-60.01c4.12-4.12,9.76-5.17,12.59-2.34l3.28,3.28c2.99,2.99,1.64,9.07-2.94,13.17Z"/><path class="cls-26" d="m807.04,401.86s11.48,22.98-9.49,36.6c-2.22,1.44-25.62,4.78-25.62,4.78,0,0-5.43-43.72,35.11-41.37Z"/><rect class="cls-36" x="796.27" y="398.65" width="21.15" height="10.94" rx="5.47" ry="5.47" transform="translate(470.93 -433.42) rotate(41.54)"/><path class="cls-6" d="m1045.6,842.06l15.1-83.64c.98-5.41,4.62-9.22,8.38-8.75h0c3.98.5,6.61,5.59,5.89,11.37l-10.49,84.22c-.72,5.79-4.53,10.07-8.5,9.58l-4.61-.57c-4.2-.52-6.86-6.15-5.77-12.2Z"/><path class="cls-26" d="m1069.8,756.88s-23.17-11.08-14.99-34.71c.87-2.5,17.28-19.51,17.28-19.51,0,0,31.14,31.16-2.3,54.21Z"/><rect class="cls-36" x="1057.99" y="749.51" width="21.15" height="10.94" rx="5.47" ry="5.47" transform="translate(2086.99 1576.34) rotate(-176.36)"/><path class="cls-34" d="m1034.89,864.47l-4.67-84.78c-.3-5.48,1.15-9.86,3.33-10.04h0c2.31-.2,4.59,4.34,5.1,10.15l7.35,84.55c.5,5.81-.96,10.68-3.27,10.88l-2.68.23c-2.44.21-4.82-4.85-5.16-10.99Z"/><path class="cls-8" d="m1034.76,773.28s-11.83-2.39-9.85-14.52c.21-1.28,6.61-11.29,6.61-11.29,0,0,17.2,10.88,3.24,25.81Z"/><rect class="cls-36" x="1028.43" y="769.08" width="11.59" height="6.5" rx="3.25" ry="3.25" transform="translate(2170.47 1384.73) rotate(171.57)"/><path class="cls-6" d="m769.4,442.9s3.02-20.94,5.79-20.34c2.77.59,1.09,6.01,1.09,6.01,0,0,4.31-2.9,4.36-.53s-1.4,4.91-1.4,4.91c0,0,6.47-1.3,4.95,2s-.27,1.09-.27,1.09c0,0,7.58-1.76,5.73,3.22-1.85,4.98-6.63,4.68-6.63,4.68l-13.62-1.03Z"/><path class="cls-11" d="m1079.52,794.03c-3.96,39.53-7.92,79.06-11.88,118.6-9.08,3.46-23.44,7.69-41.44,7.96-13.59.2-25.24-1.92-34.27-4.44-4.16-1.15-7.76-2.39-10.74-3.52-5.06-39.54-10.11-79.07-15.16-118.6,15.16,2.52,32.95,4.45,52.86,4.67,22.85.27,43.07-1.78,59.93-4.56.23-.03.47-.07.7-.11Z"/><rect class="cls-29" x="510.59" y="542.29" width="10.72" height="26.81"/><path class="cls-22" d="m1079.52,794.03c-3.96,39.53-7.92,79.06-11.88,118.6-9.08,3.46-23.44,7.69-41.44,7.96-13.59.2-25.24-1.92-34.27-4.44l86.89-122.01c.23-.03.47-.07.7-.11Z"/></g></svg>